<svg xmlns="http://www.w3.org/2000/svg" id="Layer_1" viewBox="0 0 200 300" width="1667" height="2500"><style type="text/css">.st0{fill:#c4af9a}.st1{fill:#bd8248}.st2{fill:#87633f}.st3{fill:#cca277}.st4{fill:#a6927e}</style><title>Figma.logo</title><desc fill="#000000">Created using Figma</desc><path id="path0_fill" class="st0" d="M50 300c27.6 0 50-22.4 50-50v-50H50c-27.6 0-50 22.4-50 50s22.4 50 50 50z" fill="#000000"/><path id="path1_fill" class="st1" d="M0 150c0-27.6 22.4-50 50-50h50v100H50c-27.6 0-50-22.4-50-50z" fill="#000000"/><path id="path1_fill_1_" class="st2" d="M0 50C0 22.4 22.4 0 50 0h50v100H50C22.4 100 0 77.6 0 50z" fill="#000000"/><path id="path2_fill" class="st3" d="M100 0h50c27.6 0 50 22.4 50 50s-22.4 50-50 50h-50V0z" fill="#000000"/><path id="path3_fill" class="st4" d="M200 150c0 27.6-22.4 50-50 50s-50-22.4-50-50 22.4-50 50-50 50 22.4 50 50z" fill="#000000"/></svg>